<svg xmlns="http://www.w3.org/2000/svg" width="256" height="256" viewBox="0 0 256 256" fill="none">
  <defs>
    <linearGradient id="sfBlue" x1="36" y1="40" x2="214" y2="204" gradientUnits="userSpaceOnUse">
      <stop stop-color="#1D4ED8"/>
      <stop offset="1" stop-color="#22C1F1"/>
    </linearGradient>
  </defs>
  <path
    d="M74 54H178L214 82L178 110H92C77.6 110 66 121.6 66 136C66 150.4 77.6 162 92 162H146C160.4 162 172 150.4 172 136C172 121.6 160.4 110 146 110H98"
    stroke="url(#sfBlue)"
    stroke-width="26"
    stroke-linecap="round"
    stroke-linejoin="round"
  />
  <path d="M78 146H42L78 174V146Z" fill="url(#sfBlue)"/>
  <path
    d="M98 110H146C160.4 110 172 121.6 172 136C172 150.4 160.4 162 146 162H92C77.6 162 66 150.4 66 136C66 121.6 77.6 110 92 110H146"
    stroke="white"
    stroke-width="13"
    stroke-linecap="round"
    stroke-linejoin="round"
  />
</svg>