<svg xmlns="http://www.w3.org/2000/svg" width="1120" height="340" viewBox="0 0 1120 340" fill="none">
  <defs>
    <linearGradient id="sfBlue" x1="130" y1="34" x2="280" y2="202" gradientUnits="userSpaceOnUse">
      <stop stop-color="#1D4ED8"/>
      <stop offset="1" stop-color="#22C1F1"/>
    </linearGradient>
    <linearGradient id="flowBlue" x1="664" y1="188" x2="1030" y2="188" gradientUnits="userSpaceOnUse">
      <stop stop-color="#1D4ED8"/>
      <stop offset="1" stop-color="#22C1F1"/>
    </linearGradient>
  </defs>

  <path
    d="M130 64H250L288 94L250 124H152C133.2 124 118 139.2 118 158C118 176.8 133.2 192 152 192H214C232.8 192 248 176.8 248 158C248 139.2 232.8 124 214 124H162"
    stroke="url(#sfBlue)"
    stroke-width="30"
    stroke-linecap="round"
    stroke-linejoin="round"
  />
  <path d="M134 170H96L134 199V170Z" fill="url(#sfBlue)"/>
  <path
    d="M162 124H214C232.8 124 248 139.2 248 158C248 176.8 232.8 192 214 192H152C133.2 192 118 176.8 118 158C118 139.2 133.2 124 152 124H214"
    stroke="white"
    stroke-width="15"
    stroke-linecap="round"
    stroke-linejoin="round"
  />

  <text x="64" y="260" fill="#0B1E3A" font-size="116" font-family="Segoe UI, Arial, sans-serif" font-weight="700" letter-spacing="-1.5">service</text>
  <text x="664" y="260" fill="url(#flowBlue)" font-size="116" font-family="Segoe UI, Arial, sans-serif" font-weight="700" letter-spacing="-1.5">flow</text>
  <text x="65" y="316" fill="#334155" font-size="40" font-family="Segoe UI, Arial, sans-serif" letter-spacing="4">ONE PLAFORM. UNLIMITED GROWTH</text>
</svg>